# xmcd
#
# Track frame offsets: 
#        150
#        11974
#        26466
#        39533
#        52971
#        64402
#        78894
#        91068
#        102488
#        117083
#        134142
#        146663
#        161068
#        171786
#        184241
#        196708
#        208299
#        219020
#        232534
#        243696
#        255653
#        268762
#        283266
#        295240
#
# Disc length: 4086 seconds
#
# Revision: 2
# Processed by: cddbd v1.5.2PL0 Copyright (c) Steve Scherf et al.
# Submitted via: ExactAudioCopy v1.0b3
#
DISCID=640ff418
DTITLE=The Louvin Brothers - Tragic Songs of Life (1956) - Nearer My G
DTITLE=od to Thee  (1957)
DYEAR=2013
DGENRE=Country
TTITLE0=Kentucky
TTITLE1=I'll Be All Smiles Tonight
TTITLE2=Let Her Go, God Bless Her
TTITLE3=What Is Home Without Love
TTITLE4=A Tiny Broken Heart
TTITLE5=In the Pines
TTITLE6=Alabama
TTITLE7=Katie Dear
TTITLE8=My Brothers Will
TTITLE9=Knoxville Girl
TTITLE10=Take the News To Mother
TTITLE11=Mary of the Wild Moor
TTITLE12=Are You Washed in the Blood?
TTITLE13=Nearer, My God, to Thee
TTITLE14=Wait a Little Longer, Please Jesus
TTITLE15=I Can't So No
TTITLE16=I Won't Have to Cross Jordan Alone
TTITLE17=There's No Excuse
TTITLE18=This Little Light of Mine
TTITLE19=Praying
TTITLE20=Thankful
TTITLE21=Lord, I'm Coming Home
TTITLE22=Last Chance to Pray
TTITLE23=I Steal Away and Pray
EXTD=
EXTT0=
EXTT1=
EXTT2=
EXTT3=
EXTT4=
EXTT5=
EXTT6=
EXTT7=
EXTT8=
EXTT9=
EXTT10=
EXTT11=
EXTT12=
EXTT13=
EXTT14=
EXTT15=
EXTT16=
EXTT17=
EXTT18=
EXTT19=
EXTT20=
EXTT21=
EXTT22=
EXTT23=
PLAYORDER=
